<?xml version="1.0" standalone="no"?>
<!DOCTYPE svg PUBLIC "-//W3C//DTD SVG 20010904//EN"
 "http://www.w3.org/TR/2001/REC-SVG-20010904/DTD/svg10.dtd">
<svg version="1.0" xmlns="http://www.w3.org/2000/svg"
 width="1254.000000pt" height="1254.000000pt" viewBox="0 0 1254.000000 1254.000000"
 preserveAspectRatio="xMidYMid meet">

<g transform="translate(0.000000,1254.000000) scale(0.100000,-0.100000)"
fill="#000000" stroke="none">
<path d="M5955 11123 c-963 -80 -1816 -399 -2546 -954 -592 -450 -1044 -1001
-1363 -1661 -276 -570 -432 -1158 -477 -1802 -15 -219 -7 -733 15 -911 136
-1110 604 -2085 1361 -2840 630 -628 1415 -1057 2282 -1249 594 -131 1221
-147 1818 -46 1204 205 2242 840 2982 1825 495 658 811 1466 909 2320 25 220
30 755 10 985 -28 306 -66 537 -137 809 -182 706 -504 1337 -958 1876 -100
119 -371 395 -492 501 -310 272 -621 481 -999 670 -524 262 -1100 422 -1705
474 -109 9 -602 11 -700 3z m541 -343 c1054 -61 1974 -453 2748 -1173 298
-277 602 -666 807 -1032 303 -542 489 -1160 550 -1825 16 -171 16 -606 0 -770
-76 -802 -334 -1529 -768 -2157 -265 -384 -679 -802 -1063 -1074 -611 -434
-1303 -692 -2075 -775 -196 -21 -653 -24 -830 -5 -860 90 -1591 372 -2237 864
-429 325 -811 749 -1090 1211 -355 585 -568 1259 -629 1981 -15 176 -6 617 16
815 92 834 388 1596 868 2229 505 668 1263 1212 2053 1477 353 118 734 197
1079 224 119 9 171 12 336 18 31 1 137 -3 235 -8z"/>
<path d="M5995 10584 c-410 -40 -767 -113 -1085 -223 -652 -223 -1232 -601
-1713 -1116 -148 -159 -148 -159 1 -125 50 11 126 20 167 20 42 0 90 6 108 13
18 8 90 53 161 100 222 149 390 217 535 217 82 0 123 -11 184 -50 54 -34 81
-73 103 -147 26 -90 88 -120 216 -103 118 15 194 0 323 -64 l110 -54 119 -6
c101 -5 135 -12 234 -45 64 -21 118 -43 120 -49 3 -9 -236 -12 -960 -12 -529
0 -1127 -3 -1328 -7 l-365 -6 -70 -100 c-208 -296 -411 -694 -529 -1036 -87
-251 -164 -589 -208 -916 -20 -150 -22 -212 -22 -525 -1 -282 3 -382 17 -485
72 -540 202 -977 419 -1410 44 -88 95 -194 112 -235 56 -131 144 -269 226
-355 42 -44 119 -132 171 -195 207 -250 387 -428 624 -619 1000 -805 2334
-1094 3604 -780 711 175 1364 541 1891 1061 52 51 147 152 211 223 64 72 135
145 158 163 105 84 248 288 310 442 16 41 74 163 128 270 334 661 493 1412
455 2147 -18 339 -51 558 -133 887 -158 628 -450 1190 -889 1704 l-45 53
-1095 -2 c-671 -2 -1094 1 -1094 7 1 5 35 19 75 32 167 53 259 73 376 82 134
10 144 14 290 102 203 121 365 178 510 178 108 0 173 -24 244 -91 89 -83 88
-83 234 -90 111 -4 139 -9 190 -31 55 -24 125 -43 125 -34 0 10 -239 220 -355
313 -614 491 -1302 778 -2105 879 -118 15 -657 28 -755 18z m412 -542 c116
-44 215 -152 249 -270 24 -82 16 -210 -18 -285 -76 -164 -268 -268 -440 -238
-135 24 -246 109 -309 236 -32 65 -34 76 -34 170 0 92 3 106 32 167 55 116
164 209 279 238 58 14 181 5 241 -18z m1313 -1573 c27 -17 62 -45 77 -63 24
-27 39 -34 98 -45 39 -7 93 -25 120 -40 28 -16 75 -37 105 -46 79 -26 148 -62
160 -85 27 -51 -116 -114 -325 -145 -451 -65 -1165 -9 -1325 105 -66 47 -31
79 139 127 64 17 144 43 178 58 38 15 91 28 140 32 l78 6 -41 -34 c-87 -73
-119 -108 -109 -118 14 -14 138 -32 205 -30 30 1 96 -1 146 -6 60 -5 102 -4
123 3 24 8 41 7 77 -5 37 -12 68 -14 143 -9 53 3 108 9 123 12 l27 6 -27 23
c-64 53 -96 58 -90 15 l5 -31 -41 39 c-23 22 -51 43 -62 46 -19 6 -21 10 -12
34 8 20 7 36 -5 65 -20 47 -45 48 -130 6 -34 -18 -74 -35 -90 -40 -26 -7 -27
-7 -13 13 8 11 12 26 9 34 -3 8 5 16 23 20 16 4 62 25 103 46 92 46 125 48
191 7z m-425 -56 c-25 -6 -46 -23 -41 -32 2 -3 -13 -5 -35 -3 -21 2 -39 6 -39
9 0 10 68 32 100 31 21 0 27 -2 15 -5z m-1735 -518 c17 -9 30 -19 30 -23 0 -4
20 -13 45 -20 91 -24 123 -71 71 -105 -82 -54 -286 -62 -402 -15 -71 29 -87
50 -58 78 17 18 122 55 131 47 1 -2 -4 -16 -13 -31 -8 -16 -12 -31 -10 -33 21
-22 194 -30 228 -12 21 11 21 12 -3 25 -15 9 -38 12 -61 8 -37 -6 -38 -5 -32
24 5 25 2 30 -26 42 -23 9 -28 15 -18 21 21 14 87 10 118 -6z m3227 -21 c19
-15 72 -77 118 -138 45 -62 93 -119 106 -128 32 -20 120 -44 191 -52 105 -11
192 -56 300 -155 49 -44 61 -50 138 -66 102 -20 164 -46 179 -73 7 -12 47 -34
102 -56 108 -42 175 -83 223 -137 30 -33 36 -46 36 -85 0 -78 -41 -130 -145
-182 -79 -40 -205 -89 -280 -108 -120 -31 -215 -94 -215 -143 0 -56 -62 -118
-156 -157 -45 -19 -49 -30 -19 -50 35 -23 22 -30 -103 -54 -316 -63 -803 -45
-1124 41 -43 12 -78 24 -78 28 0 4 13 11 28 17 31 12 38 41 12 49 -31 10 -120
82 -143 116 -30 45 -135 85 -271 104 -56 8 -125 19 -152 25 -27 5 -125 19
-219 30 -93 11 -206 28 -250 39 -98 24 -195 59 -195 71 0 5 16 20 36 34 l35
24 -48 38 c-26 22 -65 56 -86 77 -35 32 -39 41 -33 70 5 26 4 29 -5 14 -6 -11
-9 -29 -6 -43 2 -13 0 -21 -4 -18 -5 3 -9 14 -9 25 0 26 19 61 29 55 4 -3 47
28 96 69 64 52 103 77 140 88 29 8 64 27 81 44 34 34 86 49 229 64 50 5 112
12 139 16 63 8 56 -4 -34 -57 -38 -22 -74 -49 -80 -59 -5 -10 -39 -42 -75 -70
-36 -28 -65 -58 -65 -66 0 -8 14 -22 31 -31 38 -19 140 -47 147 -39 3 3 -2 5
-11 5 -10 0 -17 4 -17 9 0 9 124 32 167 30 17 -1 21 -3 11 -6 -14 -3 -16 -9
-8 -23 8 -15 6 -21 -7 -29 -13 -8 5 -10 67 -10 47 1 77 3 68 6 -17 4 -41 57
-31 67 4 3 0 6 -8 7 -8 0 17 11 55 23 58 19 76 21 113 12 33 -7 53 -6 81 4 20
8 58 13 84 12 38 -2 63 5 137 43 50 25 120 52 154 60 35 8 82 21 105 29 23 8
42 13 42 10 0 -3 -9 -23 -20 -45 -12 -22 -20 -45 -19 -52 3 -26 -2 -44 -17
-63 -15 -18 -15 -18 -5 3 8 16 8 24 -1 30 -28 17 -36 9 -42 -38 -7 -51 -2 -74
15 -64 5 4 4 -6 -1 -21 -6 -15 -9 -29 -7 -31 10 -10 164 -6 184 5 12 7 46 12
75 12 41 0 71 9 133 39 83 41 220 102 268 120 15 6 27 15 27 20 0 24 -166 201
-189 201 -12 0 -34 57 -28 74 3 7 -2 24 -11 37 -15 23 -15 23 1 10 28 -22 29
-7 1 22 -14 15 -29 25 -35 22 -5 -4 -9 2 -9 12 -1 10 -2 44 -4 75 -2 51 -1 55
11 40 14 -16 14 -16 9 1 -3 10 -6 23 -6 28 0 4 -7 6 -15 3 -10 -4 -15 0 -15
14 0 31 -23 44 -55 32 -15 -6 -30 -9 -32 -6 -3 2 5 7 16 11 22 7 18 35 -6 35
-8 0 -11 5 -8 10 11 17 -11 11 -39 -11 -18 -14 -24 -25 -17 -32 5 -5 7 -16 4
-24 -5 -13 -2 -13 18 -4 23 12 23 12 4 -4 -11 -9 -56 -35 -99 -57 -44 -22
-116 -69 -160 -105 -45 -36 -94 -72 -111 -78 -33 -14 -168 -21 -201 -10 -26 8
-30 59 -7 94 l15 24 -83 -6 c-100 -7 -148 -20 -176 -46 -11 -11 -24 -17 -27
-13 -4 3 -4 -2 0 -12 6 -16 4 -18 -14 -14 -16 5 -30 -4 -57 -33 -43 -48 -46
-41 -4 12 60 76 168 118 304 119 49 0 83 7 115 21 73 34 100 40 210 48 124 9
154 22 255 112 118 104 178 119 252 63z m-4137 -9 c27 -14 76 -42 108 -63 42
-27 83 -43 143 -56 115 -24 207 -74 268 -145 l49 -56 94 -13 c171 -22 235 -37
271 -65 22 -16 72 -36 136 -52 133 -33 200 -59 249 -95 46 -33 65 -61 56 -84
-8 -20 -24 -21 -24 -1 0 19 -133 108 -155 103 -13 -2 -10 -9 14 -38 17 -19 30
-43 31 -53 0 -29 -26 -71 -65 -106 -42 -37 -39 -54 8 -40 49 14 47 11 -17 -21
-64 -33 -160 -59 -311 -85 -55 -9 -111 -24 -124 -32 -13 -8 -71 -23 -130 -34
-58 -10 -112 -21 -120 -24 -7 -3 -101 -10 -207 -15 -214 -11 -261 -19 -348
-62 -116 -58 -318 -91 -631 -104 -355 -14 -824 43 -932 113 -27 18 -27 18 -5
21 29 4 28 22 -1 22 -31 0 -210 61 -273 93 -129 66 -140 164 -21 202 28 10
102 41 162 70 61 29 126 57 145 64 20 6 40 21 45 33 6 13 26 31 45 40 36 17
155 43 245 52 49 5 50 5 25 -11 -14 -10 -43 -37 -65 -61 -22 -25 -70 -75 -107
-111 -38 -37 -68 -72 -68 -79 0 -20 60 -50 114 -57 118 -14 127 -16 116 -30
-21 -25 19 -36 185 -53 143 -14 186 -14 305 -3 142 12 221 29 227 46 3 10 -49
37 -74 39 -7 1 -21 12 -30 26 l-17 25 27 -17 c15 -10 38 -25 51 -33 18 -12 29
-13 52 -5 43 17 149 40 223 49 43 6 137 4 266 -6 191 -14 297 -14 312 0 12 13
-165 201 -227 242 -30 20 -42 22 -87 16 -29 -4 -53 -5 -53 -3 0 3 15 34 32 69
l33 63 -40 75 c-27 50 -46 75 -58 75 -25 0 -113 -46 -172 -89 -78 -59 -88 -62
-157 -55 -47 5 -73 2 -102 -10 -27 -11 -35 -12 -28 -3 8 10 7 16 -7 26 -12 9
-16 21 -13 34 5 19 2 20 -64 14 -38 -3 -100 -15 -138 -27 -69 -22 -212 -38
-171 -20 11 5 38 9 61 9 22 1 78 12 124 26 46 14 101 25 123 25 71 0 171 22
210 47 20 13 61 45 90 72 53 47 183 125 235 141 53 16 111 11 162 -15z m-920
-349 c5 -13 17 -26 27 -29 10 -3 -20 -5 -67 -5 -82 0 -84 0 -50 13 19 7 31 14
27 14 -4 1 -2 8 5 16 20 22 47 18 58 -9z m-180 4 c-8 -5 -19 -10 -25 -10 -5 0
-3 5 5 10 8 5 20 10 25 10 6 0 3 -5 -5 -10z m4154 -11 c-3 -5 -10 -7 -15 -3
-5 3 -7 10 -3 15 3 5 10 7 15 3 5 -3 7 -10 3 -15z m-3800 -298 l28 -19 -33 3
c-36 2 -94 23 -69 25 13 0 13 1 0 11 -26 18 42 0 74 -20z m2926 -33 c-81 -33
-114 -52 -97 -56 20 -4 23 -22 3 -22 -8 0 -17 -8 -21 -17 -6 -17 -7 -17 -21 1
-14 20 -14 20 -14 0 0 -14 -2 -16 -9 -6 -6 10 -10 8 -14 -9 -4 -13 -9 -20 -13
-16 -16 16 35 64 105 100 41 20 81 37 90 36 10 0 6 -4 -9 -11z m-426 -83 c14
-11 16 -15 5 -15 -26 0 -59 12 -59 21 0 14 33 10 54 -6z m-2569 -33 c-2 -7 -1
-10 4 -7 5 3 12 1 16 -5 3 -5 -2 -10 -12 -10 -10 0 -23 8 -29 18 -10 15 -8 18
8 18 11 0 17 -5 13 -14z m2885 -62 c0 -5 -7 -7 -15 -4 -8 4 -12 10 -9 15 6 11
24 2 24 -11z m-44 -32 l29 -33 -32 29 c-31 28 -38 36 -30 36 2 0 16 -15 33
-32z m-690 -364 c21 -9 70 -41 108 -73 110 -88 143 -111 189 -131 38 -17 154
-39 282 -55 171 -20 327 -83 431 -171 l56 -48 151 -23 c114 -17 161 -29 193
-48 26 -15 78 -31 130 -40 204 -36 485 -122 555 -169 33 -23 34 -26 34 -86 0
-57 2 -64 33 -91 18 -16 40 -29 50 -29 9 0 65 -16 125 -34 116 -37 220 -99
329 -196 61 -54 82 -98 72 -150 -9 -41 -74 -121 -126 -155 -26 -16 -47 -33
-47 -37 -1 -3 15 -15 36 -25 20 -10 37 -22 37 -28 3 -28 -280 -107 -539 -150
-272 -46 -418 -101 -448 -168 -32 -73 -232 -143 -602 -211 -229 -41 -317 -72
-386 -134 -86 -77 -107 -143 -69 -214 l20 -37 -47 20 c-98 42 -130 3 -51 -61
75 -61 124 -118 138 -161 13 -38 12 -45 -7 -78 -16 -28 -41 -47 -117 -86 l-96
-49 51 -16 c59 -17 57 -21 -28 -64 -92 -46 -424 -82 -643 -71 -298 16 -513 59
-650 130 -34 18 -100 73 -100 84 0 11 72 31 111 31 44 0 70 16 50 29 -27 17
-175 49 -256 55 -433 33 -773 85 -900 136 l-30 12 73 25 c39 14 72 28 72 33 0
4 -39 29 -86 56 -48 27 -101 66 -121 89 -37 42 -37 47 -17 152 5 28 1 37 -27
62 -42 39 -220 118 -284 126 -135 18 -401 69 -495 94 -103 29 -200 65 -200 75
0 3 17 14 38 25 71 36 70 41 -14 117 -83 73 -113 124 -114 187 0 66 27 108
139 219 94 91 117 109 172 129 65 24 149 89 149 116 0 27 125 72 336 122 304
72 328 83 445 209 41 44 96 94 123 111 48 30 260 102 341 116 22 3 49 13 61
20 11 7 43 16 70 20 83 12 268 56 281 66 6 6 16 33 22 60 6 28 18 63 26 79 20
38 89 94 149 119 96 42 339 91 446 91 35 0 68 11 133 45 75 38 97 45 146 45
32 0 76 -7 97 -16z m-2574 -340 c15 -8 47 -14 72 -14 32 0 52 -7 73 -24 15
-13 44 -27 63 -31 63 -13 169 -58 205 -88 91 -75 2 -168 -210 -221 -138 -34
-294 -48 -475 -43 -194 6 -293 23 -364 63 -100 56 -81 98 70 159 72 30 100 46
103 60 2 11 8 23 15 28 16 11 104 34 154 41 l43 6 -26 -45 c-15 -25 -24 -45
-20 -45 4 0 -3 -15 -14 -34 -12 -18 -21 -38 -21 -44 0 -32 160 -65 242 -49 29
5 91 11 138 12 47 1 98 8 113 14 l28 11 -33 28 c-18 15 -57 43 -86 61 -43 27
-55 31 -67 21 -8 -7 -15 -18 -15 -24 -1 -33 -17 -37 -58 -13 -31 17 -39 26
-32 37 14 22 12 56 -5 70 -8 6 -36 17 -62 24 l-48 12 28 18 c56 37 129 41 189
10z m6312 -265 c133 -32 277 -43 339 -26 46 13 22 -9 -31 -28 -62 -22 -202
-29 -332 -17 -134 12 -199 3 -370 -52 -172 -56 -255 -70 -410 -69 -115 1 -277
21 -332 42 -14 5 57 10 187 14 239 6 307 19 479 89 217 88 272 94 470 47z
m-51 -265 c40 -9 76 -20 81 -24 5 -5 -38 -8 -95 -8 -78 1 -124 -4 -183 -20
-44 -12 -104 -22 -135 -22 -61 0 -182 18 -194 30 -4 4 36 10 90 13 54 3 127
15 163 26 80 24 179 26 273 5z m-836 -1184 c83 -44 100 -50 154 -50 43 0 79
-7 118 -24 31 -13 87 -31 125 -40 87 -20 284 -115 336 -162 21 -19 46 -55 56
-80 16 -41 16 -47 0 -88 -32 -83 -112 -144 -268 -203 -214 -80 -434 -113 -763
-113 -321 0 -586 35 -757 101 -288 111 -290 272 -5 379 130 49 178 73 194 97
18 27 107 57 218 72 109 16 109 16 64 -31 -23 -24 -53 -60 -67 -81 -14 -21
-40 -44 -58 -52 -18 -7 -41 -26 -51 -41 -10 -16 -28 -39 -41 -53 -12 -14 -21
-32 -20 -40 4 -24 65 -49 133 -57 37 -4 68 -14 80 -25 33 -29 78 -33 173 -14
86 17 88 17 156 -4 73 -23 237 -30 266 -11 8 5 11 10 5 10 -5 1 -26 24 -45 53
-19 28 -58 76 -87 105 -49 51 -55 54 -88 48 -42 -8 -43 -3 -10 49 28 47 31 75
10 116 -9 16 -14 33 -11 38 3 4 -2 17 -10 27 -15 19 -15 19 -10 0 5 -15 4 -16
-7 -8 -10 8 -33 2 -92 -23 -87 -38 -95 -40 -95 -24 0 5 5 7 11 3 7 -4 9 0 5
13 -4 11 -2 33 4 49 8 24 8 26 -2 14 -7 -8 -20 -16 -28 -18 -8 -2 -16 -8 -18
-13 -2 -5 -11 -9 -19 -9 -11 0 -9 5 8 19 40 31 109 62 121 55 7 -4 8 -3 4 4
-4 7 -6 12 -4 12 2 0 30 11 63 25 95 39 141 34 252 -25z m-4372 -1050 c17 -9
57 -20 90 -24 76 -9 134 -37 160 -78 16 -26 36 -38 107 -63 51 -17 99 -41 114
-57 26 -26 27 -27 10 -52 -23 -36 -72 -54 -196 -73 -198 -29 -461 1 -622 73
-67 31 -88 54 -88 99 0 48 74 102 159 119 29 5 32 4 26 -12 -4 -9 -10 -27 -12
-40 -3 -12 -9 -25 -14 -28 -17 -10 -9 -31 16 -42 82 -38 258 -50 303 -22 14 9
13 10 -10 6 -21 -5 -28 -2 -33 14 -9 29 -55 61 -77 55 -15 -5 -18 0 -19 34 -2
67 -10 81 -42 81 -19 -1 -18 -3 8 -15 l30 -14 -35 6 c-19 3 -44 9 -55 13 -18
7 -18 8 5 20 58 31 120 32 175 0z m2905 -196 c141 -36 150 -38 320 -38 96 -1
191 2 210 6 67 14 3 -20 -98 -53 -125 -39 -255 -47 -457 -25 -230 24 -351 9
-580 -70 -271 -94 -398 -117 -660 -118 -206 -1 -349 14 -495 52 l-65 17 260 6
c353 9 510 36 753 130 59 23 147 57 197 76 131 51 200 63 345 59 106 -3 147
-9 270 -42z m-214 -395 c58 -10 224 -58 224 -65 0 -1 -64 -2 -142 -2 -126 1
-156 -2 -253 -26 -131 -34 -298 -45 -401 -27 -124 22 -164 33 -158 42 3 6 14
7 23 4 42 -13 269 15 401 49 144 37 210 43 306 25z"/>
<path d="M8369 7689 c-11 -7 -11 -9 0 -9 7 0 11 -6 8 -14 -4 -11 4 -9 29 6 19
11 34 21 34 22 0 7 -58 3 -71 -5z"/>
<path d="M8136 7661 c-18 -7 -18 -8 -3 -14 9 -3 17 -2 17 3 0 5 8 11 18 13 11
3 12 5 2 5 -8 0 -24 -3 -34 -7z"/>
<path d="M8211 7630 c-10 -6 -11 -8 -1 -12 7 -2 15 -21 19 -43 l6 -38 30 26
c22 20 26 26 13 27 -9 0 -25 11 -36 24 -12 16 -23 21 -31 16z"/>
<path d="M8870 7366 c0 -2 8 -10 18 -17 15 -13 16 -12 3 4 -13 16 -21 21 -21
13z"/>
<path d="M8121 7201 c-8 -5 -16 -16 -17 -25 -2 -12 2 -14 16 -6 18 10 35 40
22 40 -4 0 -13 -4 -21 -9z"/>
<path d="M8828 7124 c-16 -8 -28 -17 -28 -19 0 -6 32 6 55 22 26 18 7 16 -27
-3z"/>
<path d="M8639 7037 c-27 -13 -44 -27 -42 -34 3 -7 0 -13 -7 -13 -6 0 -8 -4
-5 -10 18 -29 89 11 97 55 3 14 5 25 4 24 0 0 -22 -10 -47 -22z"/>
<path d="M8808 7033 c7 -3 16 -2 19 1 4 3 -2 6 -13 5 -11 0 -14 -3 -6 -6z"/>
<path d="M8788 7006 c-20 -7 -58 -26 -85 -42 -53 -31 -115 -64 -121 -64 -3 0
1 6 7 14 19 23 -14 28 -42 5 -14 -10 -30 -19 -35 -19 -5 0 -16 -8 -23 -17 -12
-15 -12 -16 6 -9 11 5 29 10 40 12 19 4 19 4 -1 -5 -11 -5 -47 -28 -79 -50
-34 -24 -65 -39 -74 -36 -9 3 -12 3 -8 -1 4 -4 -4 -20 -19 -35 l-26 -27 25
-17 c14 -9 63 -23 109 -31 45 -9 103 -20 128 -26 108 -25 139 -28 208 -22 l72
6 -19 32 c-19 30 -21 35 -21 56 0 6 -5 10 -11 10 -6 0 -8 -7 -5 -16 3 -9 2
-12 -5 -9 -5 4 -7 15 -4 26 7 20 1 22 -50 19 l-30 -2 40 43 c22 24 50 51 62
61 19 16 22 28 21 88 0 76 -1 77 -60 56z"/>
<path d="M8225 7000 c-8 -13 5 -13 25 0 13 8 13 10 -2 10 -9 0 -20 -4 -23 -10z"/>
<path d="M9563 7003 c9 -2 23 -2 30 0 6 3 -1 5 -18 5 -16 0 -22 -2 -12 -5z"/>
<path d="M8365 6990 c11 -5 29 -8 40 -8 16 0 15 2 -5 8 -34 11 -60 11 -35 0z"/>
<path d="M9483 6990 c-13 -5 -23 -11 -23 -14 0 -5 72 13 79 20 8 7 -34 3 -56
-6z"/>
<path d="M7827 6939 c24 -9 196 -16 180 -8 -7 4 -54 9 -106 11 -51 2 -85 1
-74 -3z"/>
<path d="M8167 6898 c2 -5 10 -8 16 -8 7 0 41 -14 77 -30 45 -21 58 -24 43
-11 -12 10 -20 21 -17 24 3 3 -5 11 -18 18 -25 14 -109 19 -101 7z m78 -8 c3
-6 -1 -7 -9 -4 -18 7 -21 14 -7 14 6 0 13 -4 16 -10z"/>
<path d="M9055 6894 c4 -11 10 -30 13 -44 2 -14 13 -33 23 -42 15 -15 25 -16
76 -6 78 14 112 29 56 24 -24 -2 -43 1 -43 6 0 4 -10 13 -22 18 -13 6 -43 22
-67 36 -38 23 -43 24 -36 8z"/>
<path d="M4425 7685 c-52 -32 -40 -32 22 0 26 13 41 24 33 24 -8 0 -33 -11
-55 -24z"/>
<path d="M4209 7682 c-13 -9 -26 -19 -29 -22 -3 -4 -16 -13 -29 -20 -19 -9
-21 -14 -10 -21 11 -7 11 -9 1 -9 -25 0 -6 -23 21 -27 21 -3 28 1 33 22 3 14
10 25 16 25 5 0 8 6 7 13 -4 22 12 46 27 40 8 -3 14 -3 14 0 0 14 -31 14 -51
-1z"/>
<path d="M4289 7613 c-43 -52 -42 -56 4 -24 26 17 47 34 47 36 0 13 -39 3 -51
-12z"/>
<path d="M4920 7423 c0 -3 21 -38 47 -77 51 -76 75 -124 69 -135 -3 -4 5 -9
17 -11 39 -7 191 -5 210 2 17 7 17 8 0 26 -29 30 -161 112 -179 112 -9 0 -50
20 -90 44 -41 25 -74 42 -74 39z"/>
<path d="M5379 7387 c16 -20 71 -61 71 -54 0 3 -19 20 -42 38 -24 19 -37 26
-29 16z"/>
<path d="M5380 7337 c0 -32 11 -40 26 -19 9 12 9 21 2 29 -16 20 -28 15 -28
-10z"/>
<path d="M5371 7259 c-24 -5 -47 -11 -50 -15 -8 -9 80 6 99 17 18 10 10 10
-49 -2z"/>
<path d="M5840 6550 c0 -5 7 -10 16 -10 8 0 12 5 9 10 -3 6 -10 10 -16 10 -5
0 -9 -4 -9 -10z"/>
<path d="M5677 6516 c-10 -14 -11 -29 -6 -44 11 -28 4 -42 -20 -42 -21 0 -64
43 -54 54 5 5 -18 -6 -49 -23 -38 -22 -94 -40 -173 -56 -65 -14 -140 -35 -169
-48 -46 -21 -59 -35 -121 -128 -81 -122 -155 -204 -245 -268 l-65 -46 -145 -1
c-125 0 -151 -3 -192 -21 -52 -24 -180 -115 -248 -177 -63 -58 -137 -103 -190
-116 -247 -59 -303 -82 -362 -144 -49 -53 -97 -119 -117 -162 -10 -22 -30 -48
-44 -57 -38 -25 -67 -58 -67 -78 0 -48 142 -101 338 -124 208 -25 345 -73 444
-155 l37 -31 -25 -36 c-28 -42 -39 -77 -29 -94 14 -22 94 -49 201 -68 86 -14
122 -26 170 -54 89 -52 90 -55 57 -121 -27 -56 -27 -56 -8 -75 11 -10 49 -29
85 -41 128 -46 132 -48 120 -70 -8 -16 -6 -22 12 -34 33 -21 189 -32 238 -16
32 11 48 10 102 -4 35 -8 104 -20 154 -26 102 -11 183 -33 232 -61 44 -25 149
-59 184 -59 26 0 27 2 16 21 -16 25 -103 89 -122 89 -7 0 -16 9 -19 20 -3 11
-13 23 -24 26 -10 4 -26 14 -35 22 -13 10 -29 13 -63 8 -37 -6 -45 -4 -45 8 0
18 -57 86 -73 86 -6 0 -20 9 -32 20 -12 11 -41 23 -66 26 -40 5 -48 2 -93 -32
-57 -46 -95 -47 -139 -6 -30 28 -58 70 -39 58 6 -4 8 2 5 14 -3 11 -9 17 -14
14 -5 -3 -9 -1 -9 5 0 19 62 81 81 81 12 0 25 14 36 38 15 30 27 40 68 54 49
16 49 20 -7 32 -16 4 -28 13 -28 21 0 8 -9 19 -20 25 -23 12 -27 -2 -5 -20 8
-7 15 -17 15 -22 0 -5 -14 7 -31 27 -17 19 -38 35 -46 35 -8 0 -11 5 -8 10 7
11 -2 13 -57 10 -47 -2 -84 16 -69 34 6 7 12 22 14 33 4 30 25 52 84 90 64 41
69 49 47 74 -14 15 -15 22 -5 32 10 9 11 8 6 -5 -6 -16 -2 -15 49 2 30 11 64
20 75 20 24 0 36 16 19 23 -7 3 6 6 29 6 46 1 142 -17 158 -29 6 -4 28 -8 50
-9 22 0 54 -4 70 -9 37 -10 90 -1 91 16 2 29 5 33 17 25 19 -12 47 -14 47 -4
0 5 14 8 32 6 25 -4 38 2 64 28 l33 31 -25 11 c-22 9 -18 10 28 10 41 1 71 10
133 40 113 56 165 55 298 -8 89 -42 105 -47 166 -46 47 1 77 -4 97 -16 16 -9
20 -13 9 -9 -11 4 -44 10 -73 12 -52 4 -53 3 -42 -18 9 -17 17 -20 40 -15 16
4 31 2 35 -5 4 -6 16 -8 26 -5 11 4 26 2 33 -4 10 -9 15 -8 20 4 3 8 0 15 -6
15 -6 0 -9 2 -7 4 6 7 358 -50 367 -58 1 -2 -20 -6 -48 -10 -55 -7 -68 -29
-27 -46 20 -8 21 -9 2 -10 -11 -1 -15 -4 -9 -6 14 -6 121 34 130 48 4 6 3 8
-2 5 -6 -3 -16 -2 -24 3 -8 5 3 8 32 8 25 -1 50 2 56 6 29 18 -53 151 -158
256 -25 24 -44 48 -43 51 1 4 -5 13 -14 21 -12 9 -15 9 -9 1 11 -19 -5 -16
-68 12 -31 14 -67 25 -79 25 -20 0 -37 9 -115 62 -13 9 -57 24 -96 33 l-71 17
-28 61 c-16 34 -33 72 -39 85 -6 12 -31 34 -55 47 -52 31 -85 64 -76 78 3 6 1
7 -4 4 -6 -4 -18 2 -28 13 -10 11 -42 33 -71 50 -30 17 -54 33 -54 36 0 3 5 2
10 -1 16 -10 11 1 -7 16 -11 9 -14 10 -9 2 5 -10 -1 -11 -26 -6 -40 9 -58 9
-123 0 -27 -4 -44 -4 -37 -1 6 3 9 10 6 15 -3 6 -11 6 -20 -2 -7 -6 -12 -15
-9 -19 3 -4 -4 -10 -15 -13 -15 -4 -7 10 27 50 53 62 171 173 184 173 23 0 6
62 -31 116 -22 33 -40 64 -40 69 0 6 12 -9 26 -33 26 -44 46 -53 23 -10 -7 12
-13 26 -12 29 1 3 -9 18 -23 35 -18 22 -23 24 -18 9 l6 -20 -13 20 c-7 11 -18
40 -25 65 -9 38 -16 46 -40 50 -15 3 -27 8 -26 13 5 17 0 25 -29 58 -35 40
-63 45 -82 15z m-144 -98 c-4 -13 -13 -32 -21 -43 l-14 -20 7 20 c4 11 10 30
12 43 3 12 9 22 13 22 5 0 6 -10 3 -22z m187 -18 c-8 -5 -19 -10 -25 -10 -5 0
-3 5 5 10 8 5 20 10 25 10 6 0 3 -5 -5 -10z m-1133 -936 c-3 -3 -12 -4 -19 -1
-8 3 -5 6 6 6 11 1 17 -2 13 -5z m796 -95 c12 -6 29 -20 36 -32 l14 -22 -24
21 c-13 12 -37 26 -54 32 -16 6 -22 11 -13 11 9 1 28 -4 41 -10z m116 -142 c6
-8 7 -18 3 -22 -4 -5 -1 -5 5 -1 7 4 50 -3 95 -15 84 -22 125 -38 100 -39 -7
0 -10 -4 -7 -10 3 -5 -1 -10 -9 -10 -9 0 -16 -4 -16 -9 0 -8 -12 -8 -38 -2 -8
2 28 31 40 32 7 1 -5 7 -27 14 -24 8 -63 11 -97 8 -45 -5 -58 -3 -60 8 0 8 -2
19 -2 24 -1 6 -5 16 -9 23 -11 16 8 16 22 -1z m-79 -131 c0 -2 -8 -10 -17 -17
-16 -13 -17 -12 -4 4 13 16 21 21 21 13z m20 -33 c0 -19 -3 -24 -10 -17 -6 6
-8 18 -4 27 9 24 14 21 14 -10z"/>
<path d="M5857 6003 c-4 -3 -7 -11 -7 -17 0 -6 5 -5 12 2 6 6 9 14 7 17 -3 3
-9 2 -12 -2z"/>
<path d="M7337 5931 c12 -6 25 -21 29 -35 9 -36 84 -46 84 -11 0 7 6 15 13 18
10 3 -37 16 -123 33 -24 4 -24 4 -3 -5z"/>
<path d="M6816 5882 c-4 -7 -13 -9 -19 -5 -7 4 -6 0 2 -10 15 -19 9 -22 -19
-7 -14 8 -19 5 -23 -11 -6 -24 28 -64 45 -53 17 11 87 -74 119 -142 27 -59 30
-62 106 -97 82 -39 168 -96 190 -126 21 -30 136 -65 268 -80 50 -6 110 -17
135 -26 41 -13 42 -14 10 -10 -19 3 -30 2 -23 -1 7 -3 9 -12 6 -20 -7 -18 20
-28 53 -20 18 5 24 12 20 22 -5 14 1 15 41 10 127 -16 183 -18 219 -6 33 11
36 14 19 21 -27 11 -95 72 -72 65 24 -7 21 1 -4 15 -16 8 -20 8 -14 -1 9 -15
-63 -2 -90 16 -11 8 -27 14 -36 14 -30 0 -124 48 -137 69 -9 15 -22 21 -51 21
-26 0 -44 7 -57 21 -24 27 -67 49 -94 49 -12 0 -40 16 -63 35 -46 40 -89 51
-140 37 -29 -8 -39 -7 -49 6 -10 12 -10 14 0 8 20 -12 13 9 -10 31 -41 37 -88
55 -88 33 0 -5 11 -10 24 -10 13 0 34 -9 47 -21 l24 -21 -27 16 c-15 9 -39 16
-54 16 -15 0 -59 20 -98 43 -39 24 -90 53 -114 64 -24 12 -39 23 -34 24 5 2 6
13 2 23 -4 14 -9 16 -14 8z m-22 -68 c7 -19 2 -18 -19 6 -16 17 -16 20 -3 15
9 -4 19 -13 22 -21z"/>
<path d="M7776 5704 c-3 -9 -4 -19 -1 -22 3 -3 5 1 6 9 0 8 4 6 9 -6 6 -13 9
-15 9 -5 0 8 -3 21 -8 28 -6 11 -10 10 -15 -4z"/>
<path d="M6428 5503 c7 -3 16 -2 19 1 4 3 -2 6 -13 5 -11 0 -14 -3 -6 -6z"/>
<path d="M7971 5507 c2 -1 15 -11 29 -22 l25 -20 -19 23 c-11 12 -24 22 -29
22 -6 0 -8 -1 -6 -3z"/>
<path d="M7145 5460 c-9 -15 9 -33 35 -35 25 -2 21 13 -7 32 -15 10 -23 11
-28 3z"/>
<path d="M7424 5338 c-3 -4 21 -7 53 -7 60 1 56 5 -10 11 -21 2 -40 0 -43 -4z"/>
<path d="M7647 5260 c-20 -4 -41 -10 -45 -14 -8 -9 63 3 93 15 24 9 4 9 -48
-1z"/>
<path d="M8080 5188 c-16 -22 -30 -50 -30 -61 0 -18 5 -19 63 -14 56 5 157 38
157 51 0 3 -24 19 -52 36 -74 42 -101 40 -138 -12z"/>
<path d="M7142 5197 c-6 -6 -12 -19 -14 -27 -2 -8 -10 -20 -18 -27 -12 -10 -8
-11 19 -3 19 5 41 16 50 24 9 8 25 16 36 19 19 4 18 5 -2 6 -12 0 -25 6 -28
11 -9 14 -30 13 -43 -3z"/>
<path d="M7438 5203 c7 -3 16 -2 19 1 4 3 -2 6 -13 5 -11 0 -14 -3 -6 -6z"/>
<path d="M5897 5166 c-31 -19 -35 -25 -23 -35 11 -10 19 -7 40 14 14 14 22 25
18 26 -4 0 2 4 13 9 13 6 15 9 5 9 -8 0 -32 -10 -53 -23z"/>
<path d="M6155 5177 c15 -59 27 -66 59 -34 10 9 15 17 13 17 -3 0 -20 7 -40
15 -26 11 -34 11 -32 2z"/>
<path d="M7308 5183 c6 -2 18 -2 25 0 6 3 1 5 -13 5 -14 0 -19 -2 -12 -5z"/>
<path d="M5970 5140 c0 -11 4 -20 9 -20 17 0 19 15 5 28 -12 11 -14 9 -14 -8z"/>
<path d="M6015 5130 c3 -5 8 -10 11 -10 2 0 4 5 4 10 0 6 -5 10 -11 10 -5 0
-7 -4 -4 -10z"/>
<path d="M7596 5129 c-26 -7 -63 -13 -176 -25 -79 -9 -102 -17 -122 -45 -17
-22 -30 -29 -55 -29 -69 0 -133 -46 -172 -124 -19 -37 -19 -37 2 -70 25 -38
38 -39 152 -10 82 21 127 44 142 73 7 15 44 42 94 68 65 34 93 43 133 43 64 1
244 25 253 34 16 16 -28 39 -84 43 -35 2 -74 13 -98 27 -31 17 -48 20 -69 15z"/>
<path d="M6030 5117 c-19 -6 -37 -12 -39 -13 -5 -4 62 -64 71 -64 21 0 5 29
-19 35 -26 6 -27 7 -10 20 22 16 47 9 47 -11 0 -9 12 -14 35 -14 29 0 35 4 35
22 0 17 -3 19 -12 10 -18 -18 -44 -15 -59 7 -12 15 -19 17 -49 8z"/>
<path d="M6728 5041 c7 -4 32 -8 55 -8 35 -1 38 0 17 7 -34 11 -89 12 -72 1z"/>
<path d="M6758 4953 c7 -3 16 -2 19 1 4 3 -2 6 -13 5 -11 0 -14 -3 -6 -6z"/>
<path d="M6708 4943 c6 -2 18 -2 25 0 6 3 1 5 -13 5 -14 0 -19 -2 -12 -5z"/>
<path d="M6300 4930 c0 -5 9 -10 20 -10 11 0 20 5 20 10 0 6 -9 10 -20 10 -11
0 -20 -4 -20 -10z"/>
<path d="M6658 4933 c6 -2 18 -2 25 0 6 3 1 5 -13 5 -14 0 -19 -2 -12 -5z"/>
<path d="M6548 4923 c12 -2 32 -2 45 0 12 2 2 4 -23 4 -25 0 -35 -2 -22 -4z"/>
<path d="M6290 4908 c-82 -12 -85 -19 -5 -12 39 3 74 9 78 13 10 9 -3 9 -73
-1z"/>
<path d="M4955 4877 c-26 -23 -28 -26 -10 -27 29 0 47 15 43 35 -3 16 -6 15
-33 -8z"/>
<path d="M6173 4883 c9 -2 23 -2 30 0 6 3 -1 5 -18 5 -16 0 -22 -2 -12 -5z"/>
<path d="M6108 4873 c6 -2 18 -2 25 0 6 3 1 5 -13 5 -14 0 -19 -2 -12 -5z"/>
<path d="M5968 4843 c7 -3 16 -2 19 1 4 3 -2 6 -13 5 -11 0 -14 -3 -6 -6z"/>
<path d="M5765 4780 c-3 -6 1 -7 9 -4 18 7 21 14 7 14 -6 0 -13 -4 -16 -10z"/>
<path d="M5670 4730 c-9 -6 -10 -10 -3 -10 6 0 15 5 18 10 8 12 4 12 -15 0z"/>
<path d="M5410 4610 c0 -13 49 -44 57 -36 7 6 -35 46 -49 46 -4 0 -8 -4 -8
-10z"/>
<path d="M5530 4529 c0 -13 5 -31 10 -39 7 -11 8 -5 4 20 -8 43 -14 51 -14 19z"/>
<path d="M5625 4380 c10 -11 20 -20 23 -20 3 0 -3 9 -13 20 -10 11 -20 20 -23
20 -3 0 3 -9 13 -20z"/>
<path d="M5984 4115 c-48 -24 -109 -95 -127 -147 -8 -22 -27 -23 -53 -3 -10 8
-25 15 -32 15 -13 0 -122 -97 -122 -109 0 -4 50 -17 110 -30 118 -24 159 -22
191 10 24 24 39 24 91 -3 34 -18 59 -23 123 -23 91 0 185 27 185 52 0 9 -27
43 -61 77 -33 33 -67 76 -74 93 -18 43 -97 93 -145 93 -20 0 -59 -11 -86 -25z"/>
<path d="M3575 6050 c3 -5 8 -10 11 -10 2 0 4 5 4 10 0 6 -5 10 -11 10 -5 0
-7 -4 -4 -10z"/>
<path d="M9250 4324 c0 -6 7 -19 16 -30 14 -18 14 -18 3 6 -14 31 -19 36 -19
24z"/>
<path d="M8916 4258 c3 -12 20 -51 35 -86 33 -73 34 -76 17 -66 -10 5 -10 4 0
-7 19 -20 191 -25 217 -6 19 14 18 16 -14 43 -37 32 -109 74 -127 74 -6 0 -17
7 -24 15 -11 13 -93 55 -107 55 -2 0 -1 -10 3 -22z"/>
</g>
</svg>
